<?xml version="1.0" standalone="no"?>
<!DOCTYPE svg PUBLIC "-//W3C//DTD SVG 20010904//EN"
 "http://www.w3.org/TR/2001/REC-SVG-20010904/DTD/svg10.dtd">
<svg version="1.0" xmlns="http://www.w3.org/2000/svg"
 width="103.000000pt" height="103.000000pt" viewBox="0 0 103.000000 103.000000"
 preserveAspectRatio="xMidYMid meet">
<metadata>
Created by potrace 1.14, written by Peter Selinger 2001-2017
</metadata>
<g transform="translate(0.000000,103.000000) scale(0.100000,-0.100000)"
fill="#000000" stroke="none">
<path d="M439 870 c-105 -31 -189 -136 -192 -239 -4 -127 87 -245 203 -266 17
-3 35 -6 38 -7 20 -5 109 16 141 34 186 104 176 373 -18 460 -48 22 -131 31
-172 18z m167 -47 c53 -25 104 -77 104 -105 0 -10 4 -18 9 -18 12 0 20 -73 9
-87 -5 -7 -5 -14 1 -17 16 -10 -14 -92 -46 -125 -12 -11 -22 -12 -53 -2 -46
14 -53 22 -54 70 -2 41 9 61 33 61 10 0 28 10 41 23 14 12 28 21 33 19 4 -1 3
7 -3 17 -8 16 -7 22 6 29 24 13 10 29 -23 27 -19 -1 -29 -7 -32 -21 -5 -27
-20 -44 -35 -38 -17 7 -51 65 -51 88 0 33 -20 28 -34 -9 -7 -21 -24 -41 -41
-50 -34 -17 -74 -70 -65 -85 4 -6 7 -36 9 -66 1 -51 0 -55 -24 -61 -14 -3 -30
-10 -37 -15 -15 -12 -65 53 -68 90 -1 16 -4 33 -7 38 -6 9 -3 65 5 94 11 39
28 69 57 99 33 33 90 67 90 54 0 -4 6 -1 12 5 20 20 109 12 164 -15z m-72
-249 c7 -18 -19 -74 -35 -74 -6 0 -7 5 -4 10 3 6 2 10 -3 10 -12 0 -22 38 -15
56 7 19 49 18 57 -2z m-67 -42 c15 -16 16 -22 4 -41 -20 -31 -54 21 -39 59 8
18 12 21 16 10 3 -8 11 -21 19 -28z m99 -20 c1 -25 -24 -38 -32 -17 -8 21 3
47 19 43 6 -3 12 -14 13 -26z m54 -78 c8 -8 1 -16 -26 -29 -43 -20 -115 -23
-166 -6 -40 13 -50 36 -20 44 35 9 201 2 212 -9z"/>
<path d="M606 571 c-3 -5 0 -14 8 -20 10 -8 16 -8 25 3 9 11 8 15 -5 20 -20 8
-22 8 -28 -3z"/>
<path d="M128 335 c-4 -4 -4 -13 -1 -21 7 -18 99 -19 106 -1 3 8 -5 12 -24 12
-15 1 -25 -3 -23 -7 8 -12 -11 -9 -24 4 -9 9 -12 9 -13 -2 0 -10 -3 -9 -8 3
-3 10 -10 15 -13 12z"/>
<path d="M415 330 c3 -5 -13 -8 -40 -5 -37 3 -45 1 -45 -14 0 -9 8 -17 19 -18
14 -1 18 3 15 15 -5 14 -2 13 10 -2 9 -12 16 -14 16 -7 0 8 7 10 21 6 14 -5
19 -3 15 3 -3 6 -1 12 6 14 7 3 5 7 -6 11 -10 4 -15 3 -11 -3z"/>
<path d="M637 333 c-12 -12 -7 -33 8 -33 17 0 19 9 7 28 -5 7 -11 9 -15 5z"/>
<path d="M451 310 c0 -10 2 -11 6 -3 3 10 8 9 20 -2 19 -20 33 -19 33 3 0 14
2 15 10 2 9 -13 10 -13 10 1 0 11 -10 15 -40 15 -30 0 -40 -4 -39 -16z"/>
<path d="M540 313 c0 -7 4 -13 8 -13 4 0 14 6 21 13 12 10 13 8 7 -8 -6 -19
-5 -19 8 -2 10 13 15 14 18 6 3 -10 6 -9 10 2 4 12 -3 15 -33 14 -24 0 -39 -5
-39 -12z"/>
<path d="M670 317 c0 -22 27 -29 45 -11 9 10 15 11 15 4 0 -7 7 -10 15 -7 8 4
17 2 20 -3 6 -10 40 -8 51 2 3 4 13 4 22 1 10 -4 13 -2 8 5 -9 16 7 15 22 0 6
-6 15 -9 19 -5 15 15 -12 21 -102 22 -63 1 -92 -3 -87 -10 3 -5 -2 -4 -11 4
-15 11 -17 11 -17 -2z"/>
<path d="M245 311 c-6 -11 9 -23 19 -14 9 9 7 23 -3 23 -6 0 -12 -4 -16 -9z"/>
<path d="M280 311 c0 -6 9 -9 19 -8 11 0 17 5 15 9 -7 11 -34 10 -34 -1z"/>
<path d="M247 253 c-12 -12 -7 -19 14 -20 17 -2 18 1 9 13 -14 16 -14 16 -23
7z"/>
<path d="M348 238 c-16 -11 -28 -15 -28 -9 0 15 -17 14 -23 -2 -4 -12 21 -15
43 -7 3 1 8 2 13 1 4 0 7 4 7 9 0 7 6 7 18 1 11 -6 24 -6 32 -1 9 5 19 5 27
-2 10 -8 13 -6 13 7 0 10 -3 15 -7 12 -3 -4 -13 -1 -21 6 -10 8 -13 8 -9 1 4
-7 0 -14 -8 -18 -8 -3 -18 1 -22 9 -7 11 -13 10 -35 -7z"/>
<path d="M567 248 c-3 -9 3 -15 19 -16 76 -6 106 -1 112 19 2 8 0 10 -5 4 -10
-13 -106 -15 -114 -3 -3 5 -9 4 -12 -4z"/>
<path d="M726 241 c-16 -6 -17 -9 -5 -13 8 -3 23 0 34 8 21 16 5 18 -29 5z"/>
<path d="M470 229 c0 -4 7 -10 16 -13 8 -3 13 -2 9 3 -3 5 1 11 7 14 7 3 3 4
-9 4 -13 -1 -23 -4 -23 -8z"/>
</g>
</svg>
